<svg width="42" height="37" viewBox="0 0 42 37" fill="none" xmlns="http://www.w3.org/2000/svg">
<g filter="url(#filter0_d_1_11192)">
<path d="M36.8511 9.91404L12.7306 0.950027C12.4221 0.835666 12.0793 0.993915 11.9655 1.30364C11.9658 1.30339 11.9653 1.30389 11.9655 1.30364L9.29489 8.59513C9.18138 8.90486 9.33964 9.24844 9.64841 9.3623L12.4448 10.392L11.8288 12.0756C11.7155 12.3853 11.8738 12.7284 12.1825 12.8423L17.7753 14.902L17.3643 16.0243C16.9908 17.0295 17.3393 18.161 18.2134 18.7792V21.8289H10.1974C9.80942 20.9391 9.01537 20.293 8.06707 20.0959V18.8409C8.06707 18.5109 7.80056 18.2433 7.47129 18.2433H5.06941C4.7404 18.2433 4.47363 18.5109 4.47363 18.8409V28.4023C4.47363 28.7326 4.7404 29 5.06941 29H7.47129C7.80056 29 8.06707 28.7326 8.06707 28.4023V27.1476C9.01537 26.9503 9.80942 26.3045 10.1974 25.4144H18.2134V26.012C18.2134 27.0022 19.0134 27.805 20.0005 27.805C20.9875 27.805 21.7878 27.0022 21.7878 26.012V19.3919C22.3293 19.1226 22.7476 18.6554 22.9561 18.0861L23.3671 16.9638L28.4004 18.8164C28.4662 18.8407 28.5354 18.853 28.6054 18.853C28.8552 18.853 29.0787 18.6967 29.1649 18.4615L29.3882 17.8513C31.3268 18.2172 33.1939 16.9374 33.5584 14.9931C33.6932 14.2745 33.6057 13.5319 33.3077 12.8648L36.9191 11.0047C37.2119 10.8543 37.3276 10.4941 37.1776 10.2004C37.1096 10.067 36.9941 9.9642 36.8541 9.91229L36.8511 9.91404ZM19.4047 19.3237L19.898 19.503C20.1225 19.5838 20.358 19.6302 20.5962 19.6405V21.8289H19.4047V19.3237ZM6.87576 27.805H5.6652V19.4386H6.87576V27.805ZM9.25864 24.2194C9.25764 24.9788 8.78061 25.6557 8.06707 25.91V21.3335C8.78061 21.5876 9.25764 22.2645 9.25864 23.0241V24.2194ZM10.4687 23.0241H20.5962V24.2194H10.4687V23.0241ZM20.0005 26.6097C19.6714 26.6097 19.4047 26.3421 19.4047 26.012V25.4144H20.5962V26.012C20.5962 26.3421 20.3295 26.6097 20.0005 26.6097ZM22.2488 16.5522L21.8378 17.6745C21.6108 18.2935 20.9265 18.611 20.309 18.3837L19.1884 17.9719C18.5709 17.7445 18.2539 17.0578 18.4806 16.4381L18.8919 15.3163L21.9116 16.4283L22.2488 16.5522ZM28.2521 17.4904L13.1523 11.9284L13.5636 10.8061L22.5111 14.102C22.7229 14.1792 22.9604 14.1308 23.1251 13.9764L24.797 12.3976L29.4842 14.1246L28.2521 17.4904ZM32.2801 15.1548C31.9026 16.1758 30.8873 16.8138 29.807 16.7087L30.7275 14.1933L32.2311 13.4166C32.4664 13.9688 32.4839 14.5903 32.2801 15.1548ZM30.2693 13.0886C30.2377 13.0913 30.2065 13.0968 30.1757 13.1051L24.8642 11.1487C24.6525 11.0707 24.4149 11.1191 24.2504 11.2741L22.5766 12.8531L10.6187 8.44817L12.8773 2.27922L35.1675 10.5631L30.2693 13.0886Z" fill="#E3B873"/>
<path d="M36.6769 10.3827L36.7004 10.3914C36.7136 10.4004 36.7246 10.4127 36.7321 10.4275L36.7323 10.4279C36.7573 10.4768 36.7374 10.536 36.6905 10.56L36.6902 10.5602L33.0787 12.4203L32.6582 12.6369L32.8511 13.0688C33.1077 13.643 33.183 14.2823 33.067 14.9009L33.067 14.9009C32.7531 16.575 31.1467 17.6744 29.4809 17.36L29.0643 17.2814L28.9186 17.6795L28.6955 18.2894C28.6955 18.2894 28.6954 18.2895 28.6954 18.2896C28.6811 18.3283 28.6448 18.353 28.6054 18.353C28.5941 18.353 28.5837 18.351 28.5739 18.3474L28.5731 18.3471L23.5398 16.4945L23.0699 16.3216L22.8976 16.7918L22.4866 17.9141C22.322 18.3635 21.992 18.7319 21.5651 18.9442L21.2878 19.0822V19.3919V26.012C21.2878 26.7275 20.7099 27.305 20.0005 27.305C19.2911 27.305 18.7134 26.7276 18.7134 26.012V25.4144V24.9144H18.2134H10.1974H9.86996L9.7391 25.2146C9.41574 25.9563 8.75437 26.4939 7.96519 26.6581L7.56707 26.741V27.1476V28.4023C7.56707 28.4579 7.52295 28.5 7.47129 28.5H5.06941C5.01787 28.5 4.97363 28.4578 4.97363 28.4023V18.8409C4.97363 18.7856 5.018 18.7433 5.06941 18.7433H7.47129C7.52282 18.7433 7.56707 18.7854 7.56707 18.8409V20.0959V20.5026L7.96531 20.5854C8.75433 20.7494 9.41574 21.2871 9.73912 22.0287L9.87 22.3289H10.1974H18.2134H18.7134V21.8289V18.7792V18.5205L18.5021 18.371C17.8137 17.8841 17.5382 16.9918 17.833 16.1985L17.8338 16.1963L18.2448 15.074L18.4165 14.6053L17.9481 14.4328L12.3555 12.3732C12.3064 12.355 12.2794 12.2993 12.2984 12.2473L12.9144 10.5639L13.0858 10.0953L12.6176 9.92285L9.8214 8.89318C9.82137 8.89317 9.82135 8.89316 9.82133 8.89316C9.77253 8.87512 9.7453 8.81918 9.76436 8.76718L9.76439 8.76709L12.4349 1.47602C12.4349 1.47596 12.4349 1.47589 12.4349 1.47583C12.4536 1.42525 12.5085 1.40105 12.5566 1.41879C12.5567 1.41881 12.5567 1.41883 12.5568 1.41885L36.6769 10.3827ZM12.087 1.10453C12.0995 1.11568 12.1113 1.1272 12.1225 1.139C12.1101 1.12775 12.0974 1.11716 12.0846 1.10718C12.0854 1.10629 12.0862 1.10541 12.087 1.10453ZM23.8364 17.1365L28.4004 18.8164L11.8288 12.0756C11.7155 12.3853 11.8738 12.7284 12.1825 12.8423L17.7753 14.902L17.3643 16.0243C16.9908 17.0295 17.3393 18.161 18.2134 18.7792V21.3289V21.8289H17.7134H10.1974C9.80942 20.9391 9.01537 20.293 8.06707 20.0959V18.8409C8.06707 18.5109 7.80056 18.2433 7.47129 18.2433H5.06941C4.7404 18.2433 4.47363 18.5109 4.47363 18.8409V28.4023C4.47363 28.7326 4.7404 29 5.06941 29H7.47129C7.80056 29 8.06707 28.7326 8.06707 28.4023V27.1476C9.01537 26.9503 9.80942 26.3045 10.1974 25.4144H17.7134H18.2134V25.9144V26.012C18.2134 27.0022 19.0134 27.805 20.0005 27.805C20.9875 27.805 21.7878 27.0022 21.7878 26.012V19.3919C22.3293 19.1226 22.7476 18.6554 22.9561 18.0861L23.1952 17.4333L23.1944 17.433L23.367 16.9641L23.3671 16.9638L23.3677 16.964L23.8366 17.1357L23.8364 17.1365ZM12.3173 1.65898C12.3173 1.65898 12.3173 1.65899 12.3173 1.65899L12.3178 1.65846L12.3173 1.65898ZM11.9655 1.30364L12.3196 1.65665L12.3196 1.65667L12.3196 1.65669L11.9655 1.30364ZM33.3077 12.8648L36.9191 11.0047L29.3882 17.8513C31.3268 18.2172 33.1939 16.9374 33.5584 14.9931C33.6932 14.2745 33.6057 13.5319 33.3077 12.8648ZM19.5755 18.8538L18.9047 18.6099V19.3237V21.8289V22.3289H19.4047H20.5962H21.0962V21.8289V19.6405V19.1616L20.6178 19.1409C20.4303 19.1328 20.2448 19.0964 20.0679 19.0328C20.0677 19.0327 20.0674 19.0326 20.0672 19.0325L19.5755 18.8538ZM6.87576 28.305H7.37576V27.805V19.4386V18.9386H6.87576H5.6652H5.1652V19.4386V27.805V28.305H5.6652H6.87576ZM9.75864 24.2201V24.2194L9.75864 23.0241L9.75864 23.0235C9.75736 22.0535 9.14817 21.1877 8.23478 20.8625L7.56707 20.6248V21.3335V25.91V26.619L8.23493 26.381C9.14812 26.0555 9.75736 25.1899 9.75864 24.2201ZM10.4687 22.5241H9.9687V23.0241V24.2194V24.7194H10.4687H20.5962H21.0962V24.2194V23.0241V22.5241H20.5962H10.4687ZM19.4047 24.9144H18.9047V25.4144V26.012C18.9047 26.6168 19.3938 27.1097 20.0005 27.1097C20.6071 27.1097 21.0962 26.6168 21.0962 26.012V25.4144V24.9144H20.5962H19.4047ZM22.7183 16.7242L22.8901 16.2551L22.4212 16.0829L22.0843 15.9591L22.084 15.959L19.0647 14.8471L18.5948 14.6741L18.4225 15.1442L18.0112 16.266L18.0111 16.2663C17.6899 17.1439 18.1383 18.118 19.0156 18.4411L19.0159 18.4413L20.1363 18.853C21.0141 19.176 21.9854 18.7242 22.3072 17.8467L22.3073 17.8465L22.7183 16.7242ZM28.0793 17.9596L28.5495 18.1328L28.7217 17.6623L29.9537 14.2964L30.1253 13.8279L29.6571 13.6554L24.9698 11.9285L24.679 11.8213L24.4537 12.0341L22.7831 13.6116C22.783 13.6117 22.7829 13.6118 22.7828 13.6119C22.7558 13.637 22.7172 13.6448 22.6829 13.6324C22.6827 13.6324 22.6826 13.6323 22.6824 13.6323L13.7364 10.3369L13.2665 10.1638L13.0941 10.6341L12.6829 11.7564L12.5111 12.225L12.9795 12.3976L28.0793 17.9596ZM32.7491 15.3282L32.7504 15.3246C32.9971 14.6412 32.9759 13.8891 32.6911 13.2206L32.4801 12.7252L32.0016 12.9724L30.498 13.7491L30.3249 13.8385L30.258 14.0214L29.3374 16.5369L29.1153 17.1438L29.7586 17.2064C31.0659 17.3335 32.2931 16.5613 32.7491 15.3282ZM30.3129 13.5866L30.4109 13.5781L30.4984 13.533L35.3966 11.0075L36.4028 10.4887L35.3417 10.0944L13.0515 1.81054L12.5805 1.63551L12.4078 2.10731L10.1492 8.27626L9.97762 8.74486L10.4459 8.91735L22.4038 13.3222L22.6944 13.4293L22.9197 13.2168L24.5933 11.638C24.5933 11.638 24.5934 11.6379 24.5934 11.6379C24.6199 11.613 24.6577 11.6054 24.6914 11.6179L30.0029 13.5743L30.1521 13.6292L30.3057 13.5879C30.3081 13.5873 30.3105 13.5869 30.3129 13.5866Z" stroke="black"/>
</g>
<defs>
<filter id="filter0_d_1_11192" x="0.473633" y="0.912842" width="40.7696" height="36.0872" filterUnits="userSpaceOnUse" color-interpolation-filters="sRGB">
<feFlood flood-opacity="0" result="BackgroundImageFix"/>
<feColorMatrix in="SourceAlpha" type="matrix" values="0 0 0 0 0 0 0 0 0 0 0 0 0 0 0 0 0 0 127 0" result="hardAlpha"/>
<feOffset dy="4"/>
<feGaussianBlur stdDeviation="2"/>
<feComposite in2="hardAlpha" operator="out"/>
<feColorMatrix type="matrix" values="0 0 0 0 0 0 0 0 0 0 0 0 0 0 0 0 0 0 0.25 0"/>
<feBlend mode="normal" in2="BackgroundImageFix" result="effect1_dropShadow_1_11192"/>
<feBlend mode="normal" in="SourceGraphic" in2="effect1_dropShadow_1_11192" result="shape"/>
</filter>
</defs>
</svg>
